<svg width="467" height="467" viewBox="0 0 467 467" fill="none" xmlns="http://www.w3.org/2000/svg">
<circle cx="233.5" cy="233.5" r="233.5" fill="#9B00BC"/>
<path d="M68.0097 240.301L153.589 168.324L167.191 182.493L98.0473 240.301L167.191 297.542L153.589 311.711L68.0097 240.301Z" fill="white"/>
<path fill-rule="evenodd" clip-rule="evenodd" d="M232.444 280.178C237.751 298.752 236.31 333.012 182.897 336.795C187.319 334.141 195.112 323.423 194.355 302.103C193.609 281.105 204.56 272.06 212.085 270.46C215.622 270.46 223.954 271.687 232.444 280.178ZM201.194 304.843C202.079 297.767 206.065 285.484 218.975 277.224C200.034 280.017 197.706 296.788 201.194 304.843Z" fill="white"/>
<path d="M245.958 253.604C244.2 257.988 240.072 261.941 234.442 269.308C231.861 266.242 226.152 263.955 226.152 263.955C226.152 263.955 220.368 261.708 216.384 262.144C217.397 252.928 217.141 247.218 218.896 242.832C226.177 220.149 275.501 126.777 282.755 122.668C285.165 130.649 256.353 232.168 245.958 253.604Z" fill="white"/>
<path d="M398.424 240.301L312.845 168.324L299.243 182.493L368.386 240.301L299.243 297.542L312.845 311.711L398.424 240.301Z" fill="white"/>
</svg>
